<svg xmlns="http://www.w3.org/2000/svg" xmlns:xlink="http://www.w3.org/1999/xlink" width="500" zoomAndPan="magnify" viewBox="0 0 375 374.999991" height="500" preserveAspectRatio="xMidYMid meet" version="1.0"><defs><g/><clipPath id="bb740e4d64"><path d="M 37.5 37.5 L 337.5 37.5 L 337.5 339.75 L 37.5 339.75 Z M 37.5 37.5 " clip-rule="nonzero"/></clipPath><clipPath id="d3342da792"><path d="M 30.753906 35.449219 L 337.503906 35.449219 L 337.503906 342 L 30.753906 342 Z M 30.753906 35.449219 " clip-rule="nonzero"/></clipPath></defs><g clip-path="url(#bb740e4d64)"><path fill="#ffffff" d="M 78.066406 287.851562 C 81.859375 291.332031 85.601562 294.867188 89.394531 298.242188 C 91.839844 300.425781 94.175781 302.921875 96.984375 304.480469 C 106.960938 309.988281 115.953125 317.214844 126.761719 321.269531 C 127.648438 321.632812 128.324219 322.566406 128.894531 323.605469 C 127.179688 322.722656 125.464844 321.839844 123.75 320.957031 C 123.230469 320.695312 122.65625 320.382812 122.035156 320.28125 C 121.203125 320.175781 120.320312 320.28125 119.433594 320.332031 C 120.007812 321.058594 120.421875 322.152344 121.148438 322.515625 C 125.515625 324.59375 129.933594 326.570312 134.402344 328.386719 C 142.769531 331.714844 151.5 334.054688 160.492188 334.988281 C 165.328125 335.507812 170.160156 335.820312 174.992188 336.234375 C 175.667969 336.289062 176.65625 336.390625 177.019531 336.027344 C 179.359375 333.535156 182.007812 334.832031 184.710938 334.9375 C 188.921875 335.09375 193.183594 334.675781 197.394531 334.105469 C 203.214844 333.324219 208.984375 332.183594 214.753906 331.089844 C 217.296875 330.621094 219.84375 329.894531 222.496094 329.738281 C 220.625 332.804688 217.453125 332.804688 214.648438 333.378906 C 211.738281 334 208.722656 334.363281 205.707031 334.625 C 200.875 335.039062 196.042969 335.300781 191.207031 335.664062 C 189.804688 335.769531 188.453125 336.183594 187.050781 336.445312 C 187.050781 336.703125 187.101562 336.910156 187.15625 337.171875 C 191.050781 337.171875 195.003906 337.535156 198.847656 337.121094 C 206.074219 336.339844 213.347656 335.613281 220.363281 333.898438 C 227.121094 332.234375 233.566406 329.324219 240.113281 326.984375 C 241.777344 326.414062 243.597656 326.207031 245.207031 325.425781 C 250.144531 323.140625 255.132812 320.902344 259.863281 318.203125 C 265.789062 314.824219 271.921875 311.550781 277.117188 307.183594 C 283.925781 301.519531 289.902344 294.8125 296.246094 288.578125 C 297.128906 287.746094 297.90625 286.808594 298.738281 285.925781 C 300.246094 284.265625 302.378906 283.277344 301.910156 280.15625 C 301.648438 278.597656 303.46875 276.570312 304.664062 275.011719 C 307.730469 271.0625 310.121094 266.695312 314.175781 263.421875 C 316.046875 261.914062 316.824219 259.058594 317.863281 256.667969 C 319.839844 252.195312 321.816406 247.675781 323.476562 243.101562 C 324.777344 239.515625 325.660156 235.722656 326.75 232.03125 C 326.90625 231.460938 327.21875 230.941406 327.53125 230.421875 C 329.351562 226.992188 329.871094 223.300781 329.296875 219.453125 C 326.179688 225.949219 326.804688 233.796875 321.917969 239.722656 C 329.453125 219.039062 332.054688 197.679688 331.222656 175.070312 C 331.742188 177.148438 332.105469 178.449219 332.46875 179.746094 C 332.832031 179.695312 333.195312 179.644531 333.558594 179.59375 C 333.195312 177.097656 333.195312 174.445312 332.417969 172.054688 C 331.636719 169.769531 330.027344 167.742188 329.453125 165.613281 C 329.609375 164.3125 330.183594 162.910156 329.871094 161.765625 C 328.933594 158.179688 327.738281 154.644531 326.597656 151.109375 C 325.921875 149.03125 325.296875 147.003906 324.515625 144.667969 C 325.191406 144.769531 325.609375 144.824219 326.179688 144.875 C 326.023438 143.003906 326.230469 141.027344 325.609375 139.367188 C 322.59375 130.789062 319.890625 122.058594 314.433594 114.625 C 308.5625 106.621094 302.898438 98.515625 296.398438 91.03125 C 290.527344 84.222656 283.71875 78.558594 277.273438 72.476562 C 268.4375 64.160156 257.472656 59.433594 246.664062 54.390625 C 242.191406 52.3125 237.777344 50.078125 233.203125 48.308594 C 230.238281 47.167969 227.015625 46.648438 223.949219 45.917969 C 221.507812 45.347656 218.910156 45.191406 216.675781 44.257812 C 210.28125 41.605469 203.472656 41.503906 196.769531 41.035156 C 190.585938 40.617188 184.296875 40.410156 178.113281 40.773438 C 171.667969 41.136719 165.273438 42.851562 158.882812 42.957031 C 150.203125 43.113281 142.40625 46.023438 134.765625 49.402344 C 125.410156 53.558594 115.433594 56.625 107.066406 62.863281 C 100.257812 67.957031 93.449219 72.945312 86.902344 78.351562 C 83.054688 81.519531 79.625 85.261719 76.246094 88.902344 C 67.722656 98.097656 60.136719 107.972656 54.574219 119.199219 C 51.144531 126.164062 48.390625 133.492188 45.632812 140.769531 C 42.203125 149.65625 40.125 158.957031 38.671875 168.367188 C 38.460938 169.875 38.359375 171.378906 38.253906 172.886719 C 37.996094 172.886719 37.785156 172.835938 37.527344 172.835938 C 37.839844 170.082031 37.996094 167.328125 38.460938 164.625 C 40.332031 153.710938 43.347656 143.109375 47.296875 132.714844 C 50.832031 123.410156 55.09375 114.574219 60.601562 106.414062 C 65.695312 98.929688 71.621094 91.96875 77.546875 85.105469 C 80.820312 81.363281 84.925781 78.453125 88.617188 75.128906 C 91.683594 72.375 94.539062 69.359375 97.761719 66.761719 C 100.257812 64.734375 103.011719 63.121094 105.765625 61.511719 C 118.914062 53.664062 132.6875 47.167969 147.34375 42.90625 C 152.75 41.347656 158.570312 41.136719 164.183594 40.203125 C 167.925781 39.578125 171.613281 38.488281 175.355469 38.226562 C 184.347656 37.5 193.289062 37.65625 202.121094 39.839844 C 206.4375 40.929688 211.0625 40.773438 215.425781 41.761719 C 228.058594 44.464844 240.53125 47.789062 252.277344 53.246094 C 254.304688 54.183594 256.019531 55.691406 257.890625 56.886719 C 258.667969 57.40625 259.449219 57.976562 260.332031 58.339844 C 270.570312 62.914062 278.730469 70.449219 287.355469 77.3125 C 295.933594 84.066406 301.855469 93.007812 308.5625 101.21875 C 313.1875 106.882812 316.617188 113.484375 320.566406 119.667969 C 322.644531 122.996094 324.671875 126.371094 326.230469 130.0625 C 325.867188 129.800781 325.503906 129.492188 324.828125 129.023438 C 324.828125 129.75 324.671875 130.269531 324.828125 130.632812 C 326.960938 135.414062 329.144531 140.195312 331.324219 144.976562 C 331.742188 145.863281 332.3125 146.640625 332.46875 147.578125 C 333.507812 153.347656 334.910156 159.113281 335.222656 164.988281 C 335.796875 175.640625 335.585938 186.296875 335.847656 197.003906 C 335.949219 199.964844 336.679688 202.875 337.09375 205.785156 C 337.144531 206.203125 337.25 206.667969 337.199219 207.03125 C 334.753906 216.542969 332.3125 226.054688 329.765625 235.566406 C 329.558594 236.34375 328.570312 236.917969 328 237.644531 C 327.480469 238.269531 326.960938 238.945312 326.648438 239.671875 C 324.359375 245.285156 322.542969 251.105469 319.734375 256.457031 C 316.148438 263.320312 312.511719 270.179688 307.261719 276.050781 C 303.9375 279.742188 300.921875 283.847656 298.425781 288.160156 C 296.453125 291.539062 293.488281 293.671875 290.890625 296.21875 C 288.1875 298.867188 285.175781 301.257812 282.417969 303.855469 C 279.09375 306.976562 275.921875 310.25 272.648438 313.421875 C 271.921875 311.289062 270.777344 312.328125 269.53125 313.210938 C 264.644531 316.589844 259.914062 320.332031 254.71875 323.191406 C 244.117188 329.011719 232.421875 331.972656 220.832031 335.25 C 211.839844 337.796875 202.640625 337.847656 193.546875 339.25 C 189.078125 339.925781 184.296875 339.144531 179.722656 338.625 C 170.210938 337.585938 160.699219 336.289062 151.191406 334.988281 C 134.351562 332.753906 119.382812 325.839844 105.402344 316.640625 C 101.816406 314.25 98.59375 311.289062 95.269531 308.535156 C 92.460938 306.246094 89.8125 303.753906 86.953125 301.519531 C 78.84375 295.125 72.765625 286.808594 65.746094 279.429688 C 59.925781 273.296875 57.378906 265.347656 52.496094 258.695312 C 51.976562 258.019531 52.027344 256.976562 52.183594 255.9375 C 55.199219 260.773438 57.953125 265.761719 61.332031 270.335938 C 65.382812 275.792969 69.90625 280.9375 74.375 286.132812 C 75.15625 287.070312 76.714844 287.332031 77.859375 287.953125 C 77.703125 290.03125 80.09375 292.734375 83.210938 293.671875 C 81.445312 291.488281 79.726562 289.667969 78.066406 287.851562 Z M 335.273438 191.179688 C 334.910156 191.179688 334.601562 191.179688 334.234375 191.179688 C 333.144531 197.886719 331.429688 204.488281 332.675781 211.347656 C 332.988281 211.347656 333.300781 211.398438 333.613281 211.398438 C 334.132812 204.640625 334.703125 197.9375 335.273438 191.179688 Z M 335.273438 191.179688 " fill-opacity="1" fill-rule="nonzero"/></g><path fill="#ffffff" d="M 289.28125 86.976562 C 281.171875 80.898438 273.011719 74.816406 264.644531 68.578125 C 270.207031 70.085938 286.941406 82.300781 289.28125 86.976562 Z M 289.28125 86.976562 " fill-opacity="1" fill-rule="nonzero"/><path fill="#ffffff" d="M 229.511719 328.285156 C 239.90625 323.398438 250.300781 318.460938 260.695312 313.574219 C 260.800781 313.785156 260.851562 313.992188 260.957031 314.148438 C 251.027344 320.125 240.53125 324.75 229.511719 328.285156 Z M 229.511719 328.285156 " fill-opacity="1" fill-rule="nonzero"/><path fill="#ffffff" d="M 157.269531 332.441406 C 150.203125 332.960938 144.382812 329.894531 138.40625 327.347656 C 144.640625 329.011719 150.828125 330.675781 157.269531 332.441406 Z M 157.269531 332.441406 " fill-opacity="1" fill-rule="nonzero"/><path fill="#ffffff" d="M 291.097656 291.746094 C 293.28125 288.214844 295.414062 284.628906 297.648438 281.09375 C 297.90625 280.730469 298.480469 280.574219 299 280.3125 C 299.257812 283.222656 297.492188 284.886719 295.722656 286.601562 C 294.0625 288.265625 292.605469 290.085938 291.097656 291.746094 Z M 291.097656 291.746094 " fill-opacity="1" fill-rule="nonzero"/><path fill="#ffffff" d="M 69.644531 277.300781 C 71.984375 280.15625 74.324219 283.066406 76.609375 285.980469 C 76.507812 286.082031 76.402344 286.132812 76.296875 286.238281 C 73.75 283.535156 71.257812 280.78125 68.710938 278.078125 C 69.074219 277.820312 69.386719 277.558594 69.644531 277.300781 Z M 69.644531 277.300781 " fill-opacity="1" fill-rule="nonzero"/><path fill="#ffffff" d="M 316.148438 252.664062 C 317.707031 249.441406 319.269531 246.21875 320.878906 243.050781 C 321.035156 243.101562 321.140625 243.152344 321.292969 243.207031 C 319.890625 246.53125 318.539062 249.859375 317.136719 253.132812 C 316.773438 252.976562 316.460938 252.820312 316.148438 252.664062 Z M 316.148438 252.664062 " fill-opacity="1" fill-rule="nonzero"/><path fill="#ffffff" d="M 291.097656 291.746094 C 289.332031 293.253906 287.667969 294.761719 285.851562 296.21875 C 285.070312 296.894531 284.136719 297.359375 283.25 297.933594 C 283.042969 297.621094 282.835938 297.308594 282.679688 296.996094 C 285.433594 295.28125 288.292969 293.515625 291.097656 291.746094 Z M 291.097656 291.746094 " fill-opacity="1" fill-rule="nonzero"/><path fill="#ffffff" d="M 78.066406 287.851562 C 79.726562 289.667969 81.390625 291.488281 83.316406 293.515625 C 80.144531 292.578125 77.753906 289.875 77.960938 287.796875 C 77.960938 287.796875 78.066406 287.851562 78.066406 287.851562 Z M 78.066406 287.851562 " fill-opacity="1" fill-rule="nonzero"/><path fill="#ffffff" d="M 203.683594 45.972656 C 201.8125 45.761719 199.941406 45.554688 198.070312 45.347656 C 198.070312 45.242188 198.121094 45.140625 198.121094 44.984375 C 199.992188 44.984375 201.914062 44.984375 203.785156 44.984375 C 203.785156 45.347656 203.734375 45.660156 203.683594 45.972656 Z M 203.683594 45.972656 " fill-opacity="1" fill-rule="nonzero"/><g clip-path="url(#d3342da792)"><path fill="#ffffff" d="M 184.015625 35.449219 C 99.351562 35.449219 30.753906 104.109375 30.753906 188.714844 C 30.753906 273.316406 99.351562 341.976562 184.015625 341.976562 C 268.683594 341.976562 337.28125 273.316406 337.28125 188.714844 C 337.28125 104.109375 268.683594 35.449219 184.015625 35.449219 Z M 184.015625 332.273438 C 104.726562 332.273438 40.453125 268.003906 40.453125 188.714844 C 40.453125 109.421875 104.726562 45.152344 184.015625 45.152344 C 263.304688 45.152344 327.578125 109.421875 327.578125 188.714844 C 327.578125 268.003906 263.304688 332.273438 184.015625 332.273438 Z M 184.015625 332.273438 " fill-opacity="1" fill-rule="nonzero"/></g><g fill="#ffffff" fill-opacity="1"><g transform="translate(56.286061, 240.680311)"><g><path d="M 84.984375 -163.1875 C 94.785156 -163.1875 102.695312 -161.71875 108.71875 -158.78125 C 114.75 -155.84375 120.398438 -152.414062 125.671875 -148.5 C 127.628906 -147 129.132812 -146.25 130.1875 -146.25 C 133.050781 -146.25 134.9375 -150.84375 135.84375 -160.03125 L 141.046875 -160.03125 C 140.742188 -154.457031 140.515625 -147.675781 140.359375 -139.6875 C 140.210938 -131.695312 140.140625 -121.148438 140.140625 -108.046875 L 134.9375 -108.046875 C 133.882812 -114.367188 132.601562 -120.46875 131.09375 -126.34375 C 129.59375 -132.226562 127.109375 -137.28125 123.640625 -141.5 C 119.265625 -147.070312 113.535156 -151.398438 106.453125 -154.484375 C 99.378906 -157.578125 92.070312 -159.125 84.53125 -159.125 C 77 -159.125 70.179688 -157.273438 64.078125 -153.578125 C 57.972656 -149.890625 52.734375 -144.578125 48.359375 -137.640625 C 43.992188 -130.710938 40.644531 -122.390625 38.3125 -112.671875 C 35.976562 -102.953125 34.8125 -91.988281 34.8125 -79.78125 C 34.8125 -52.664062 39.179688 -32.816406 47.921875 -20.234375 C 56.660156 -7.648438 70.222656 -1.359375 88.609375 -1.359375 C 94.023438 -1.359375 98.726562 -2.148438 102.71875 -3.734375 C 106.71875 -5.316406 109.847656 -6.859375 112.109375 -8.359375 C 114.972656 -10.316406 116.78125 -12.160156 117.53125 -13.890625 C 118.289062 -15.628906 118.671875 -17.929688 118.671875 -20.796875 L 118.671875 -42.5 C 118.671875 -48.675781 118.066406 -53.269531 116.859375 -56.28125 C 115.648438 -59.289062 113.425781 -61.320312 110.1875 -62.375 C 106.945312 -63.4375 102.164062 -64.039062 95.84375 -64.1875 L 95.84375 -68.71875 C 98.550781 -68.5625 101.710938 -68.445312 105.328125 -68.375 C 108.941406 -68.300781 112.742188 -68.222656 116.734375 -68.140625 C 120.734375 -68.066406 124.390625 -68.03125 127.703125 -68.03125 C 132.679688 -68.03125 137.164062 -68.101562 141.15625 -68.25 C 145.144531 -68.40625 148.5 -68.5625 151.21875 -68.71875 L 151.21875 -64.1875 C 147.90625 -64.039062 145.414062 -63.515625 143.75 -62.609375 C 142.09375 -61.703125 141 -59.894531 140.46875 -57.1875 C 139.945312 -54.476562 139.6875 -50.332031 139.6875 -44.75 L 139.6875 0 L 135.171875 0 C 135.015625 -2.5625 134.445312 -5.347656 133.46875 -8.359375 C 132.488281 -11.378906 131.019531 -12.890625 129.0625 -12.890625 C 128.15625 -12.890625 127.25 -12.660156 126.34375 -12.203125 C 125.445312 -11.753906 123.867188 -10.703125 121.609375 -9.046875 C 116.628906 -5.273438 111.351562 -2.296875 105.78125 -0.109375 C 100.207031 2.078125 93.726562 3.171875 86.34375 3.171875 C 70.820312 3.171875 57.523438 -0.03125 46.453125 -6.4375 C 35.378906 -12.84375 26.898438 -22.070312 21.015625 -34.125 C 15.140625 -46.1875 12.203125 -60.578125 12.203125 -77.296875 C 12.203125 -94.929688 15.363281 -110.148438 21.6875 -122.953125 C 28.019531 -135.765625 36.648438 -145.671875 47.578125 -152.671875 C 58.503906 -159.679688 70.972656 -163.1875 84.984375 -163.1875 Z M 84.984375 -163.1875 "/></g></g></g><g fill="#ffffff" fill-opacity="1"><g transform="translate(152.901777, 286.621496)"><g><path d="M 125.984375 -113.015625 C 122.265625 -112.796875 119.582031 -112.359375 117.9375 -111.703125 C 116.300781 -111.046875 115.179688 -109.785156 114.578125 -107.921875 C 113.972656 -106.054688 113.671875 -103.046875 113.671875 -98.890625 L 113.671875 -17.40625 C 113.671875 -13.25 113.972656 -10.238281 114.578125 -8.375 C 115.179688 -6.507812 116.300781 -5.25 117.9375 -4.59375 C 119.582031 -3.9375 122.265625 -3.5 125.984375 -3.28125 L 125.984375 0 C 120.617188 -0.332031 112.296875 -0.5 101.015625 -0.5 C 89.960938 -0.5 81.367188 -0.332031 75.234375 0 L 75.234375 -3.28125 C 78.847656 -3.5 81.503906 -3.9375 83.203125 -4.59375 C 84.898438 -5.25 86.046875 -6.507812 86.640625 -8.375 C 87.242188 -10.238281 87.546875 -13.25 87.546875 -17.40625 L 87.546875 -56.828125 L 44.015625 -56.828125 L 44.015625 -17.40625 C 44.015625 -13.25 44.316406 -10.238281 44.921875 -8.375 C 45.523438 -6.507812 46.648438 -5.25 48.296875 -4.59375 C 49.941406 -3.9375 52.625 -3.5 56.34375 -3.28125 L 56.34375 0 C 50.425781 -0.332031 42.15625 -0.5 31.53125 -0.5 C 19.820312 -0.5 11.171875 -0.332031 5.578125 0 L 5.578125 -3.28125 C 9.191406 -3.5 11.847656 -3.9375 13.546875 -4.59375 C 15.242188 -5.25 16.394531 -6.507812 17 -8.375 C 17.601562 -10.238281 17.90625 -13.25 17.90625 -17.40625 L 17.90625 -98.890625 C 17.90625 -103.046875 17.601562 -106.054688 17 -107.921875 C 16.394531 -109.785156 15.242188 -111.046875 13.546875 -111.703125 C 11.847656 -112.359375 9.191406 -112.796875 5.578125 -113.015625 L 5.578125 -116.296875 C 11.171875 -115.972656 19.820312 -115.8125 31.53125 -115.8125 C 42.15625 -115.8125 50.425781 -115.972656 56.34375 -116.296875 L 56.34375 -113.015625 C 52.625 -112.796875 49.941406 -112.359375 48.296875 -111.703125 C 46.648438 -111.046875 45.523438 -109.785156 44.921875 -107.921875 C 44.316406 -106.054688 44.015625 -103.046875 44.015625 -98.890625 L 44.015625 -60.125 L 87.546875 -60.125 L 87.546875 -98.890625 C 87.546875 -103.046875 87.242188 -106.054688 86.640625 -107.921875 C 86.046875 -109.785156 84.898438 -111.046875 83.203125 -111.703125 C 81.503906 -112.359375 78.847656 -112.796875 75.234375 -113.015625 L 75.234375 -116.296875 C 81.367188 -115.972656 89.960938 -115.8125 101.015625 -115.8125 C 112.296875 -115.8125 120.617188 -115.972656 125.984375 -116.296875 Z M 125.984375 -113.015625 "/></g></g></g></svg>